<svg xmlns="http://www.w3.org/2000/svg" width="1400" height="900" viewBox="0 0 1400 900">
  <defs>
    <style>
      .bg{fill:#0b1020}
      .chrome{fill:#0e1630;stroke:#2a3a6a;stroke-width:2;rx:16}
      .tab{fill:#101a36;stroke:#2a3a6a;stroke-width:1.5;rx:10}
      .toolbar{fill:#111a33;stroke:#2a3a6a;stroke-width:2;rx:16}
      .pane{fill:#111a33;stroke:#2a3a6a;stroke-width:2;rx:16}
      .canvas{fill:#0f1630;stroke:#2a3a6a;stroke-width:2;rx:16}
      .panel{fill:#111a33;stroke:#2a3a6a;stroke-width:2;rx:16}
      .box{fill:#0f1733;stroke:#2a3a6a;stroke-width:2;rx:14}
      .btn{fill:#16244a;stroke:#2a3a6a;stroke-width:1.5;rx:12}
      .btn2{fill:#101a36;stroke:#2a3a6a;stroke-width:1.5;rx:12}
      .btnOk{fill:#123c2e;stroke:#2be4a7;stroke-width:1.5;rx:12}
      .btnWarn{fill:#3a2b12;stroke:#ffb86b;stroke-width:1.5;rx:12}
      .badge{fill:#123c2e;stroke:#2be4a7;stroke-width:1.5;rx:999}
      .badgeText{fill:#2be4a7;font:700 12px system-ui,-apple-system,Segoe UI,Roboto,Helvetica,Arial,sans-serif}
      .divider{stroke:#2a3a6a;stroke-width:1;opacity:0.6}
      .callout{fill:#0b1a2b;stroke:#8ad1ff;stroke-width:1.5;rx:12}
      .arrow{fill:none;stroke:#8ad1ff;stroke-width:2.25;stroke-dasharray:6 6}
      .title{fill:#e8eeff;font:700 26px system-ui,-apple-system,Segoe UI,Roboto,Helvetica,Arial,sans-serif}
      .h{fill:#cfe0ff;font:700 16px system-ui,-apple-system,Segoe UI,Roboto,Helvetica,Arial,sans-serif}
      .t{fill:#d6def7;font:500 14px system-ui,-apple-system,Segoe UI,Roboto,Helvetica,Arial,sans-serif}
      .muted{fill:#a9b6df;font:500 13px system-ui,-apple-system,Segoe UI,Roboto,Helvetica,Arial,sans-serif}
      .mono{fill:#d6def7;font:600 12.5px ui-monospace,SFMono-Regular,Menlo,Monaco,Consolas,"Liberation Mono","Courier New",monospace}
      .statusOk{fill:#2be4a7;font:700 13px system-ui,-apple-system,Segoe UI,Roboto,Helvetica,Arial,sans-serif}
      .statusWarn{fill:#ffb86b;font:700 13px system-ui,-apple-system,Segoe UI,Roboto,Helvetica,Arial,sans-serif}
      .pill{fill:#1a2b4f;stroke:#2a3a6a;stroke-width:1;rx:999}
    </style>
    <marker id="arrowHead" markerWidth="10" markerHeight="10" refX="8" refY="3" orient="auto">
      <path d="M0,0 L9,3 L0,6 Z" fill="#8ad1ff"/>
    </marker>
  </defs>

  <rect class="bg" width="1400" height="900"/>

  <text class="title" x="44" y="56">03b — YAML Controls: Moved from Right Sidebar into Viewbar (Viewport Pane)</text>
  <text class="muted" x="44" y="82">Mockup request: remove Scene YAML pane; show only “Open YAML …”, “Save YAML”, “Save YAML As …” centered in the Viewbar row.</text>

  <!-- browser window chrome -->
  <g transform="translate(44,110)">
    <rect class="chrome" x="0" y="0" width="1312" height="760" rx="16"/>

    <!-- tabs row -->
    <rect class="tab" x="18" y="14" width="230" height="34" rx="10"/>
    <text class="t" x="34" y="37">phaserforge</text>
    <circle cx="1266" cy="31" r="6" fill="#ff6b6b" opacity="0.9"/>
    <circle cx="1246" cy="31" r="6" fill="#ffb86b" opacity="0.9"/>
    <circle cx="1226" cy="31" r="6" fill="#2be4a7" opacity="0.9"/>

    <!-- editor toolbar -->
    <rect class="toolbar" x="18" y="60" width="1276" height="168" rx="16"/>

    <!-- toolbar left -->
    <text class="muted" x="46" y="92">Browser Editor</text>
    <text class="h" x="46" y="126">PhaserForge</text>
    <rect class="badge" x="262" y="108" width="86" height="24" rx="999"/>
    <text class="badgeText" x="284" y="124">Unsaved</text>
    <text class="muted" x="46" y="154">Move entities on the canvas, tune formations in the inspector, and round-trip YAML without leaving the editor.</text>

    <!-- toolbar right top -->
    <g transform="translate(964,82)">
      <rect class="box" x="0" y="0" width="190" height="58" rx="14"/>
      <text class="muted" x="14" y="22">UI Scale</text>
      <rect class="btn2" x="14" y="28" width="130" height="22" rx="10"/>
      <rect class="pill" x="148" y="28" width="38" height="22" rx="999"/>
      <text class="muted" x="156" y="44">100%</text>

      <rect class="box" x="204" y="0" width="86" height="58" rx="14"/>
      <text class="muted" x="218" y="22">Theme</text>
      <rect class="btn2" x="216" y="28" width="18" height="22" rx="8"/>
      <rect class="btn2" x="238" y="28" width="18" height="22" rx="8"/>
      <rect class="btn2" x="260" y="28" width="18" height="22" rx="8"/>
    </g>

    <line class="divider" x1="36" y1="176" x2="1276" y2="176"/>
    <text class="muted" x="46" y="208">Studio actions</text>
    <text class="muted" x="1156" y="208">YAML moved to viewbar</text>

    <!-- main 3-column layout -->
    <g transform="translate(18,242)">
      <!-- left pane -->
      <rect class="pane" x="0" y="0" width="300" height="560" rx="16"/>
      <text class="h" x="18" y="34">Left Sidebar</text>
      <text class="muted" x="18" y="56">Scenes • Entities • Assets Dock</text>
      <rect class="box" x="18" y="76" width="264" height="84" rx="14"/>
      <text class="muted" x="32" y="104">Scenes</text>
      <text class="muted" x="32" y="128">Sprites • Formations • Assets</text>

      <!-- center canvas -->
      <rect class="pane" x="316" y="0" width="524" height="560" rx="16"/>
      <text class="h" x="334" y="34">Center Pane</text>
      <text class="muted" x="334" y="56">Viewbar + Phaser viewport</text>

      <!-- viewbar -->
      <rect class="box" x="334" y="76" width="488" height="132" rx="14"/>
      <text class="muted" x="352" y="104">Viewbar</text>
      <text class="muted" x="352" y="128">Viewport controls • World size • YAML</text>

      <!-- existing viewbar controls (left cluster, simplified placeholders) -->
      <g transform="translate(352,146)">
        <rect class="btn2" x="0" y="0" width="74" height="26" rx="12"/>
        <text class="t" x="18" y="18">Fit</text>
        <rect class="btn2" x="82" y="0" width="74" height="26" rx="12"/>
        <text class="t" x="100" y="18">Reset</text>
      </g>

      <!-- YAML controls (requested: centered, same Y level as other buttons) -->
      <g transform="translate(414,146)">
        <!-- centered group inside 488px viewbar: total width ~ (130+10+98+10+140)=388; x offset  (488-388)/2 = 50 -->
        <g transform="translate(50,0)">
          <rect class="btn" x="0" y="0" width="130" height="26" rx="12"/>
          <text class="t" x="18" y="18">Open YAML …</text>

          <rect class="btnWarn" x="140" y="0" width="98" height="26" rx="12"/>
          <text class="t" x="160" y="18">Save YAML</text>

          <rect class="btn" x="248" y="0" width="140" height="26" rx="12"/>
          <text class="t" x="266" y="18">Save YAML As …</text>
        </g>
      </g>

      <!-- viewport -->
      <rect class="canvas" x="334" y="224" width="488" height="318" rx="16"/>
      <text class="muted" x="352" y="254">Phaser viewport renders here</text>

      <!-- right pane -->
      <rect class="pane" x="856" y="0" width="420" height="560" rx="16"/>
      <text class="h" x="874" y="34">Right Sidebar</text>
      <text class="muted" x="874" y="56">Inspector only (YAML removed)</text>

      <!-- Inspector panel -->
      <g transform="translate(874,76)">
        <rect class="panel" x="0" y="0" width="384" height="466" rx="16"/>
        <text class="h" x="14" y="28">Inspector</text>
        <text class="muted" x="14" y="48">Selection properties, background, audio, actions…</text>
        <rect class="box" x="14" y="62" width="356" height="388" rx="14" opacity="0.35"/>
        <text class="muted" x="28" y="96">Inspector blocks</text>
      </g>
    </g>

    <!-- callout -->
    <path class="arrow" d="M626 380 C 670 330, 740 315, 860 318" marker-end="url(#arrowHead)"/>
    <g transform="translate(456,260)">
      <rect class="callout" x="0" y="0" width="520" height="84" rx="12"/>
      <text class="t" x="14" y="24">Mockup change: Scene YAML pane removed from the right sidebar.</text>
      <text class="t" x="14" y="46">YAML file actions are reduced to 3 buttons, centered in the Viewbar row.</text>
      <text class="muted" x="14" y="68">No YAML textarea or “Load” action shown in this variant.</text>
    </g>

    <!-- footer note -->
    <text class="muted" x="18" y="736">Note: This is a layout mock only (not an implementation). It intentionally reduces YAML features to file-level Open/Save/Save As.</text>
  </g>
</svg>
