<svg xmlns="http://www.w3.org/2000/svg" width="1200" height="760" viewBox="0 0 1200 760" fill="none">
  <defs>
    <linearGradient id="bg" x1="0" y1="0" x2="0" y2="760" gradientUnits="userSpaceOnUse">
      <stop stop-color="#0B1216"/>
      <stop offset="1" stop-color="#070C0F"/>
    </linearGradient>
    <linearGradient id="panel" x1="0" y1="0" x2="0" y2="1" gradientUnits="objectBoundingBox">
      <stop stop-color="#1A2329"/>
      <stop offset="1" stop-color="#0E151A"/>
    </linearGradient>
    <linearGradient id="card" x1="0" y1="0" x2="0" y2="1" gradientUnits="objectBoundingBox">
      <stop stop-color="#152026"/>
      <stop offset="1" stop-color="#0C1216"/>
    </linearGradient>
    <filter id="soft" x="-20%" y="-20%" width="140%" height="140%" color-interpolation-filters="sRGB">
      <feGaussianBlur stdDeviation="8" result="b"/>
      <feColorMatrix in="b" type="matrix" values="0 0 0 0 0   0 0 0 0 0.6   0 0 0 0 0.8   0 0 0 0.25 0" result="c"/>
      <feMerge>
        <feMergeNode in="c"/>
        <feMergeNode in="SourceGraphic"/>
      </feMerge>
    </filter>
    <style>
      .ui { font-family: ui-sans-serif, system-ui, -apple-system, Segoe UI, Roboto, Helvetica, Arial; }
      .mono { font-family: ui-monospace, SFMono-Regular, Menlo, Monaco, Consolas, "Liberation Mono", "Courier New", monospace; }
      .h1 { font-weight: 900; letter-spacing: 0.10em; font-size: 18px; fill: #A9B7BE; opacity: 0.9; }
      .title { font-weight: 900; font-size: 18px; fill: #EAF2F6; }
      .label { font-weight: 800; letter-spacing: 0.14em; font-size: 12px; fill: #8FA1AB; opacity: 0.9; }
      .value { font-weight: 700; font-size: 14px; fill: #EAF2F6; opacity: 0.95; }
      .hint { font-weight: 600; font-size: 12px; fill: #90A2AC; opacity: 0.75; }
      .btn { font-weight: 900; font-size: 14px; fill: #EAF2F6; }
      .accent { fill: #84E8FF; }
    </style>
  </defs>

  <rect width="1200" height="760" fill="url(#bg)"/>

  <!-- Left sidebar -->
  <g filter="url(#soft)">
    <rect x="28" y="28" width="320" height="704" rx="18" fill="url(#panel)" stroke="#2A353C" stroke-width="2"/>
  </g>
  <g class="ui">
    <text x="54" y="62" class="h1">ENTITY LIST</text>

    <rect x="48" y="90" width="280" height="40" rx="10" fill="#0F171C" stroke="#2E3B43" stroke-width="2"/>
    <text x="62" y="116" class="hint">Search…</text>

    <!-- Add menu -->
    <g filter="url(#soft)">
      <rect x="48" y="146" width="128" height="38" rx="10" fill="#0F171C" stroke="#3EE3FF" stroke-width="2"/>
      <text x="70" y="171" class="btn">+ Add</text>
      <path d="M156 162 L170 162 L163 172 Z" fill="#84E8FF"/>
    </g>

    <!-- Add dropdown (mock) -->
    <g filter="url(#soft)">
      <rect x="48" y="194" width="220" height="142" rx="12" fill="url(#card)" stroke="#2C373F" stroke-width="2"/>
    </g>
    <text x="66" y="224" class="label">NEW ENTITY</text>
    <rect x="62" y="236" width="192" height="34" rx="10" fill="#0F171C" stroke="#2E3B43" stroke-width="2"/>
    <text x="78" y="258" class="value">Sprite</text>

    <rect x="62" y="276" width="192" height="34" rx="10" fill="#0F171C" stroke="#3EE3FF" stroke-width="2"/>
    <text x="78" y="298" class="value"><tspan class="accent">Text</tspan> (new)</text>

    <rect x="62" y="316" width="192" height="34" rx="10" fill="#0F171C" stroke="#2E3B43" stroke-width="2"/>
    <text x="78" y="338" class="value">Trigger Zone</text>
  </g>

  <!-- Canvas -->
  <g filter="url(#soft)">
    <rect x="368" y="28" width="540" height="704" rx="18" fill="#0B1115" stroke="#243038" stroke-width="2"/>
  </g>
  <g class="ui">
    <text x="392" y="62" class="h1">CANVAS</text>
    <rect x="392" y="92" width="492" height="1" fill="#1E2A31" opacity="0.9"/>

    <!-- Demo text label -->
    <g>
      <rect x="530" y="210" width="216" height="72" rx="12" fill="#0F171C" stroke="#3EE3FF" stroke-width="2" opacity="0.9"/>
      <text x="638" y="252" text-anchor="middle" class="title">Wave</text>
      <text x="638" y="274" text-anchor="middle" class="hint">TextEntity (selectable)</text>
    </g>

    <!-- Selection box -->
    <rect x="528" y="208" width="220" height="76" rx="14" fill="none" stroke="#84E8FF" stroke-width="2" stroke-dasharray="6 6" opacity="0.9"/>
  </g>

  <!-- Inspector -->
  <g filter="url(#soft)">
    <rect x="928" y="28" width="244" height="704" rx="18" fill="url(#panel)" stroke="#2A353C" stroke-width="2"/>
  </g>
  <g class="ui">
    <text x="952" y="62" class="h1">INSPECTOR</text>
    <text x="952" y="96" class="title">Text</text>
    <text x="1010" y="96" class="hint">(new entity type)</text>

    <text x="952" y="136" class="label">CONTENT</text>
    <rect x="952" y="146" width="196" height="44" rx="12" fill="#0F171C" stroke="#2E3B43" stroke-width="2"/>
    <text x="966" y="174" class="value">Wave</text>

    <text x="952" y="214" class="label">FONT</text>
    <rect x="952" y="224" width="196" height="38" rx="12" fill="#0F171C" stroke="#2E3B43" stroke-width="2"/>
    <text x="966" y="249" class="value">Kenney Future</text>

    <text x="952" y="286" class="label">SIZE</text>
    <rect x="952" y="296" width="92" height="38" rx="12" fill="#0F171C" stroke="#2E3B43" stroke-width="2"/>
    <text x="968" y="321" class="value">14</text>

    <text x="1056" y="286" class="label">COLOR</text>
    <rect x="1056" y="296" width="92" height="38" rx="12" fill="#0F171C" stroke="#2E3B43" stroke-width="2"/>
    <rect x="1072" y="308" width="16" height="16" rx="4" fill="#FFFFFF"/>
    <text x="1094" y="321" class="value">#FFF</text>

    <text x="952" y="360" class="label">ANCHOR</text>
    <rect x="952" y="370" width="196" height="38" rx="12" fill="#0F171C" stroke="#2E3B43" stroke-width="2"/>
    <text x="966" y="395" class="value">center</text>

    <text x="952" y="434" class="label">POSITION</text>
    <rect x="952" y="444" width="92" height="38" rx="12" fill="#0F171C" stroke="#2E3B43" stroke-width="2"/>
    <text x="968" y="469" class="value">x 150</text>
    <rect x="1056" y="444" width="92" height="38" rx="12" fill="#0F171C" stroke="#2E3B43" stroke-width="2"/>
    <text x="1072" y="469" class="value">y 530</text>

    <rect x="952" y="500" width="196" height="1" fill="#22323A" opacity="0.9"/>
    <text x="952" y="520" class="label">OPTIONAL</text>
    <g filter="url(#soft)">
      <rect x="952" y="534" width="196" height="42" rx="12" fill="#0F171C" stroke="#2E3B43" stroke-width="2"/>
      <text x="980" y="561" class="btn">Rasterize to Sprite…</text>
    </g>
    <text x="944" y="586" class="hint">
      <tspan x="944" dy="0">Text entities serialize to YAML</tspan>
      <tspan x="944" dy="18">and render in GameScene/EditorScene.</tspan>
    </text>
  </g>
</svg>
