<svg xmlns="http://www.w3.org/2000/svg" width="1200" height="760" viewBox="0 0 1200 760" fill="none">
  <defs>
    <linearGradient id="bg" x1="0" y1="0" x2="0" y2="760" gradientUnits="userSpaceOnUse">
      <stop stop-color="#0B1216"/>
      <stop offset="1" stop-color="#070C0F"/>
    </linearGradient>
    <linearGradient id="panel" x1="0" y1="0" x2="0" y2="1" gradientUnits="objectBoundingBox">
      <stop stop-color="#1A2329"/>
      <stop offset="1" stop-color="#0E151A"/>
    </linearGradient>
    <linearGradient id="card" x1="0" y1="0" x2="0" y2="1" gradientUnits="objectBoundingBox">
      <stop stop-color="#152026"/>
      <stop offset="1" stop-color="#0C1216"/>
    </linearGradient>
    <filter id="soft" x="-20%" y="-20%" width="140%" height="140%" color-interpolation-filters="sRGB">
      <feGaussianBlur stdDeviation="8" result="b"/>
      <feColorMatrix in="b" type="matrix" values="0 0 0 0 0   0 0 0 0 0.6   0 0 0 0 0.8   0 0 0 0.25 0" result="c"/>
      <feMerge>
        <feMergeNode in="c"/>
        <feMergeNode in="SourceGraphic"/>
      </feMerge>
    </filter>
    <style>
      .ui { font-family: ui-sans-serif, system-ui, -apple-system, Segoe UI, Roboto, Helvetica, Arial; }
      .mono { font-family: ui-monospace, SFMono-Regular, Menlo, Monaco, Consolas, "Liberation Mono", "Courier New", monospace; }
      .h1 { font-weight: 900; letter-spacing: 0.10em; font-size: 18px; fill: #A9B7BE; opacity: 0.9; }
      .title { font-weight: 900; font-size: 18px; fill: #EAF2F6; }
      .label { font-weight: 800; letter-spacing: 0.14em; font-size: 12px; fill: #8FA1AB; opacity: 0.9; }
      .value { font-weight: 800; font-size: 14px; fill: #EAF2F6; opacity: 0.95; }
      .hint { font-weight: 600; font-size: 12px; fill: #90A2AC; opacity: 0.75; }
      .btn { font-weight: 900; font-size: 14px; fill: #EAF2F6; }
      .accent { fill: #84E8FF; }
      .ok { fill: #65F2A3; }
    </style>
  </defs>

  <rect width="1200" height="760" fill="url(#bg)"/>

  <!-- Canvas -->
  <g filter="url(#soft)">
    <rect x="28" y="28" width="780" height="704" rx="18" fill="#0B1115" stroke="#243038" stroke-width="2"/>
  </g>

  <!-- Subtle grid -->
  <g opacity="0.22">
    <g stroke="#22323A" stroke-width="1">
      <path d="M68 92 H788"/>
      <path d="M68 132 H788"/>
      <path d="M68 172 H788"/>
      <path d="M68 212 H788"/>
      <path d="M68 252 H788"/>
      <path d="M68 292 H788"/>
      <path d="M68 332 H788"/>
      <path d="M68 372 H788"/>
      <path d="M68 412 H788"/>
      <path d="M68 452 H788"/>
      <path d="M68 492 H788"/>
      <path d="M68 532 H788"/>
      <path d="M68 572 H788"/>
      <path d="M68 612 H788"/>
      <path d="M68 652 H788"/>
      <path d="M108 72 V712"/>
      <path d="M148 72 V712"/>
      <path d="M188 72 V712"/>
      <path d="M228 72 V712"/>
      <path d="M268 72 V712"/>
      <path d="M308 72 V712"/>
      <path d="M348 72 V712"/>
      <path d="M388 72 V712"/>
      <path d="M428 72 V712"/>
      <path d="M468 72 V712"/>
      <path d="M508 72 V712"/>
      <path d="M548 72 V712"/>
      <path d="M588 72 V712"/>
      <path d="M628 72 V712"/>
      <path d="M668 72 V712"/>
      <path d="M708 72 V712"/>
      <path d="M748 72 V712"/>
    </g>
  </g>

  <g class="ui">
    <text x="54" y="62" class="h1">CANVAS</text>
    <text x="54" y="92" class="hint">Snap to Grid is ON • grid size 40px</text>

    <!-- Multi-selection bar -->
    <g filter="url(#soft)">
      <rect x="54" y="108" width="728" height="52" rx="14" fill="#0F171C" stroke="#2E3B43" stroke-width="2"/>
      <text x="74" y="140" class="value">4 selected</text>
      <text x="170" y="140" class="hint">Top row: Wave, Zigzag, Figure-8, Orbit</text>
      <rect x="700" y="120" width="68" height="28" rx="10" fill="#1E3B45" stroke="#3EE3FF" stroke-width="2"/>
      <text x="734" y="140" text-anchor="middle" class="btn"><tspan class="accent">Layout…</tspan></text>
    </g>

    <!-- Four selected sprite proxies on top row -->
    <g>
      <rect x="152" y="336" width="58" height="44" rx="10" fill="#0F171C" stroke="#3EE3FF" stroke-width="2" opacity="0.95"/>
      <rect x="312" y="336" width="58" height="44" rx="10" fill="#0F171C" stroke="#3EE3FF" stroke-width="2" opacity="0.95"/>
      <rect x="512" y="336" width="58" height="44" rx="10" fill="#0F171C" stroke="#3EE3FF" stroke-width="2" opacity="0.95"/>
      <rect x="672" y="336" width="58" height="44" rx="10" fill="#0F171C" stroke="#3EE3FF" stroke-width="2" opacity="0.95"/>
      <text x="181" y="408" text-anchor="middle" class="mono hint">Wave</text>
      <text x="341" y="408" text-anchor="middle" class="mono hint">Zigzag</text>
      <text x="541" y="408" text-anchor="middle" class="mono hint">Figure-8</text>
      <text x="701" y="408" text-anchor="middle" class="mono hint">Orbit</text>
    </g>
  </g>

  <!-- Right panel -->
  <g filter="url(#soft)">
    <rect x="828" y="28" width="344" height="704" rx="18" fill="url(#panel)" stroke="#2A353C" stroke-width="2"/>
  </g>
  <g class="ui">
    <text x="852" y="62" class="h1">LAYOUT</text>
    <text x="852" y="92" class="hint">Opened from selection bar “Layout…” (requires 2+ selected)</text>

    <g filter="url(#soft)">
      <rect x="848" y="112" width="304" height="620" rx="18" fill="url(#card)" stroke="#2C373F" stroke-width="2"/>
    </g>

    <!-- Align -->
    <text x="872" y="152" class="title">Align</text>
    <text x="872" y="178" class="hint">Align edges or centers to the anchor entity.</text>
    <text x="872" y="214" class="label">ANCHOR</text>
    <rect x="872" y="226" width="280" height="38" rx="12" fill="#0F171C" stroke="#2E3B43" stroke-width="2"/>
    <text x="888" y="251" class="value">First selected (Wave)</text>

    <!-- Align buttons grid -->
    <g filter="url(#soft)">
      <rect x="872" y="276" width="280" height="88" rx="16" fill="#0F171C" stroke="#2E3B43" stroke-width="2"/>
    </g>
    <text x="890" y="304" class="btn">Left</text>
    <text x="970" y="304" class="btn">Center X</text>
    <text x="1080" y="304" class="btn">Right</text>
    <text x="890" y="342" class="btn">Top</text>
    <text x="970" y="342" class="btn">Center Y</text>
    <text x="1080" y="342" class="btn">Bottom</text>

    <!-- Distribute -->
    <text x="872" y="408" class="title">Distribute</text>
    <text x="872" y="434" class="hint">Even spacing between items (keeps order).</text>
    <g filter="url(#soft)">
      <rect x="872" y="450" width="280" height="52" rx="14" fill="#0F171C" stroke="#2E3B43" stroke-width="2"/>
    </g>
    <text x="892" y="482" class="btn">Distribute X</text>
    <text x="1020" y="482" class="btn">Distribute Y</text>

    <!-- Spacing -->
    <text x="872" y="538" class="title">Spacing</text>
    <text x="872" y="564" class="hint">Set exact spacing in px or grid cells.</text>
    <text x="872" y="598" class="label">UNITS</text>
    <rect x="872" y="610" width="132" height="38" rx="12" fill="#1E3B45" stroke="#3EE3FF" stroke-width="2"/>
    <text x="908" y="635" class="value"><tspan class="accent">Grid</tspan></text>
    <rect x="1020" y="610" width="132" height="38" rx="12" fill="#0F171C" stroke="#2E3B43" stroke-width="2"/>
    <text x="1060" y="635" class="value">Pixels</text>

    <text x="872" y="676" class="label">SPACING X</text>
    <rect x="872" y="688" width="132" height="38" rx="12" fill="#0F171C" stroke="#2E3B43" stroke-width="2"/>
    <text x="892" y="713" class="value">4 cells</text>
    <rect x="1020" y="688" width="132" height="38" rx="12" fill="#0F171C" stroke="#2E3B43" stroke-width="2"/>
    <text x="1040" y="713" class="mono hint">= 160px</text>

    <!-- Apply -->
    <g filter="url(#soft)">
      <rect x="872" y="736" width="280" height="44" rx="12" fill="#1E3B45" stroke="#3EE3FF" stroke-width="2" transform="translate(0,-52)"/>
      <text x="962" y="712" class="btn"><tspan class="accent">Apply Spacing</tspan></text>
    </g>
  </g>
</svg>

