<svg xmlns="http://www.w3.org/2000/svg" width="1149" height="1369" viewBox="0 0 1149 1369" fill="none">
  <defs>
    <linearGradient id="bg" x1="0" y1="0" x2="0" y2="1369" gradientUnits="userSpaceOnUse">
      <stop stop-color="#0B1216"/>
      <stop offset="1" stop-color="#070C0F"/>
    </linearGradient>
    <linearGradient id="panel" x1="140" y1="120" x2="980" y2="1230" gradientUnits="userSpaceOnUse">
      <stop stop-color="#1A2329"/>
      <stop offset="1" stop-color="#0E151A"/>
    </linearGradient>
    <linearGradient id="card" x1="170" y1="530" x2="980" y2="1110" gradientUnits="userSpaceOnUse">
      <stop stop-color="#152026"/>
      <stop offset="1" stop-color="#0C1216"/>
    </linearGradient>
    <linearGradient id="chip" x1="0" y1="0" x2="0" y2="1" gradientUnits="objectBoundingBox">
      <stop stop-color="#22323A"/>
      <stop offset="1" stop-color="#121C22"/>
    </linearGradient>
    <linearGradient id="chipActive" x1="0" y1="0" x2="0" y2="1" gradientUnits="objectBoundingBox">
      <stop stop-color="#1E3B45"/>
      <stop offset="1" stop-color="#15262D"/>
    </linearGradient>
    <filter id="soft" x="-20%" y="-20%" width="140%" height="140%" color-interpolation-filters="sRGB">
      <feGaussianBlur stdDeviation="8" result="b"/>
      <feColorMatrix in="b" type="matrix" values="0 0 0 0 0   0 0 0 0 0.6   0 0 0 0 0.8   0 0 0 0.25 0" result="c"/>
      <feMerge>
        <feMergeNode in="c"/>
        <feMergeNode in="SourceGraphic"/>
      </feMerge>
    </filter>
    <style>
      .ui { font-family: ui-sans-serif, system-ui, -apple-system, Segoe UI, Roboto, Helvetica, Arial; }
      .mono { font-family: ui-monospace, SFMono-Regular, Menlo, Monaco, Consolas, "Liberation Mono", "Courier New", monospace; }
      .heading { font-weight: 800; letter-spacing: 0.12em; font-size: 28px; fill: #B6C3CB; opacity: 0.95; }
      .tab { font-weight: 700; font-size: 28px; fill: #E6EFF4; opacity: 0.95; }
      .tabActive { font-weight: 800; font-size: 28px; fill: #84E8FF; }
      .btnText { font-weight: 800; font-size: 30px; fill: #EAF2F6; }
      .cardTitle { font-weight: 800; font-size: 46px; fill: #EAF2F6; }
      .label { font-weight: 800; letter-spacing: 0.18em; font-size: 26px; fill: #8FA1AB; opacity: 0.85; }
      .hint { font-weight: 500; font-size: 30px; fill: #90A2AC; opacity: 0.8; }
    </style>
  </defs>

  <!-- Background -->
  <rect width="1149" height="1369" fill="url(#bg)"/>

  <!-- Main panel -->
  <rect x="40" y="40" width="1069" height="1289" rx="34" fill="url(#panel)" stroke="#2A353C" stroke-width="2"/>

  <!-- Panel header: EVENTS -->
  <g class="ui">
    <path d="M100 132 L126 132 L113 150 Z" fill="#A9B7BE" opacity="0.8"/>
    <text x="170" y="154" class="heading">EVENTS</text>
  </g>

  <!-- Tabs -->
  <g class="ui" filter="url(#soft)">
    <rect x="80" y="210" width="210" height="92" rx="22" fill="url(#chipActive)" stroke="#3EE3FF" stroke-width="2" opacity="0.95"/>
    <text x="120" y="270" class="tabActive">Handlers</text>

    <rect x="305" y="210" width="190" height="92" rx="22" fill="url(#chip)" stroke="#2E3B43" stroke-width="2" opacity="0.95"/>
    <text x="352" y="270" class="tab">Wiring</text>
  </g>

  <!-- + Add Event -->
  <g class="ui" filter="url(#soft)">
    <rect x="80" y="330" width="292" height="112" rx="26" fill="#0F171C" stroke="#2E3B43" stroke-width="2"/>
    <text x="118" y="402" class="btnText">+ Add Event</text>
  </g>

  <!-- Legacy OnSceneStart card -->
  <g filter="url(#soft)">
    <rect x="80" y="490" width="989" height="820" rx="28" fill="url(#card)" stroke="#2C373F" stroke-width="2"/>
  </g>
  <g class="ui">
    <text x="120" y="580" class="cardTitle">OnSceneStart</text>
  </g>

  <!-- + Add... control + menu -->
  <g class="ui" filter="url(#soft)">
    <rect x="120" y="630" width="250" height="92" rx="22" fill="url(#chipActive)" stroke="#3EE3FF" stroke-width="2" opacity="0.95"/>
    <text x="156" y="690" class="btnText" font-size="28px">+ Add…</text>
    <path d="M330 676 L350 676 L340 690 Z" fill="#EAF2F6" opacity="0.9"/>

    <!-- Popover -->
    <rect x="170" y="740" width="420" height="250" rx="18" fill="#121A1F" stroke="#2E3B43" stroke-width="2"/>
    <rect x="170" y="740" width="420" height="84" rx="18" fill="#171F24" opacity="0.85"/>
    <text x="220" y="794" class="btnText" font-size="28px">New Action…</text>
    <path d="M525 770 L552 770 L538.5 794 Z" fill="#D2DCE1" opacity="0.55"/>

    <rect x="190" y="842" width="380" height="74" rx="14" fill="#182229" opacity="0.9"/>
    <text x="220" y="892" class="btnText" font-size="28px" opacity="0.95">Pattern</text>
    <path d="M540 872 L560 886 L540 900" stroke="#D2DCE1" stroke-width="3" stroke-linecap="round" stroke-linejoin="round" opacity="0.55"/>

    <rect x="190" y="920" width="380" height="74" rx="14" fill="#121A1F" opacity="0.9"/>
    <text x="220" y="970" class="btnText" font-size="28px" opacity="0.6">Macro</text>
    <path d="M540 950 L560 964 L540 978" stroke="#D2DCE1" stroke-width="3" stroke-linecap="round" stroke-linejoin="round" opacity="0.35"/>

    <!-- Submenu example -->
    <rect x="610" y="840" width="340" height="180" rx="18" fill="#121A1F" stroke="#2E3B43" stroke-width="2"/>
    <text x="650" y="905" class="btnText" font-size="28px" opacity="0.95">Apply: Patrol</text>
    <text x="650" y="980" class="btnText" font-size="28px" opacity="0.9">Apply: ZigZag</text>
  </g>

  <!-- Steps label -->
  <g class="ui">
    <text x="120" y="1060" class="label">STEPS</text>
  </g>

  <!-- Step rows -->
  <g class="ui" filter="url(#soft)">
    <!-- Row 1 -->
    <rect x="120" y="1100" width="930" height="118" rx="26" fill="#0F171C" stroke="#2E3B43" stroke-width="2"/>
    <rect x="142" y="1140" width="34" height="34" rx="6" fill="#0D1418" stroke="#3A4A54" stroke-width="2"/>
    <rect x="200" y="1126" width="74" height="74" rx="20" fill="#0D1418" stroke="#2E3B43" stroke-width="2"/>
    <text x="226" y="1172" class="btnText" font-size="30px" opacity="0.85">⋮⋮</text>
    <text x="320" y="1176" class="mono" font-size="28px" fill="#EAF2F6">Step 1  ·  MoveUntil</text>
    <text x="980" y="1178" class="btnText" font-size="40px" opacity="0.9">⋯</text>

    <!-- Row 2 -->
    <rect x="120" y="1232" width="930" height="118" rx="26" fill="#0F171C" stroke="#2E3B43" stroke-width="2"/>
    <rect x="142" y="1272" width="34" height="34" rx="6" fill="#0D1418" stroke="#3A4A54" stroke-width="2"/>
    <rect x="200" y="1258" width="74" height="74" rx="20" fill="#0D1418" stroke="#2E3B43" stroke-width="2"/>
    <text x="226" y="1304" class="btnText" font-size="30px" opacity="0.85">⋮⋮</text>
    <text x="320" y="1308" class="mono" font-size="28px" fill="#EAF2F6">Step 2  ·  BlinkUntil</text>
    <text x="980" y="1310" class="btnText" font-size="40px" opacity="0.9">⋯</text>
  </g>

  <!-- Footer hint -->
  <g class="ui">
    <text x="120" y="1222" class="hint" opacity="0.6">Drag</text>
    <text x="200" y="1222" class="hint" opacity="0.6">⋮⋮</text>
    <text x="250" y="1222" class="hint" opacity="0.6">to reorder.</text>
    <text x="120" y="1350" class="hint" opacity="0.55">No custom events yet. Add an event to start building event-driven behaviors.</text>
  </g>
</svg>
