<svg xmlns="http://www.w3.org/2000/svg" width="1700" height="1120" viewBox="0 0 1700 1120">
  <defs>
    <style>
      .bg { fill: #efe7db; }
      .shell { fill: #faf7f1; stroke: #d2c1a9; stroke-width: 2; }
      .panel { fill: #fbf8f2; stroke: #d3c2aa; stroke-width: 2; }
      .panelSoft { fill: #f3ece0; stroke: #d3c2aa; stroke-width: 2; }
      .panelMuted { fill: #f7f1e7; stroke: #d8c9b6; stroke-width: 2; }
      .tabOn { fill: #d8eef0; stroke: #7db0b6; stroke-width: 2; }
      .tabOff { fill: #fffdfa; stroke: #d3c2aa; stroke-width: 2; }
      .btn { fill: #fffdfa; stroke: #d3c2aa; stroke-width: 2; }
      .btnBlue { fill: #3e6bbb; stroke: #6e94d4; stroke-width: 2; }
      .btnWarn { fill: #fff2c7; stroke: #c89b2a; stroke-width: 2; }
      .callout { fill: #fff2c7; stroke: #c89b2a; stroke-width: 2; }
      .line { stroke: #c89b2a; stroke-width: 2.5; fill: none; }
      .title { font: 800 30px ui-sans-serif, system-ui, -apple-system, Segoe UI, Roboto, Arial; fill: #26313f; }
      .section { font: 760 22px ui-sans-serif, system-ui, -apple-system, Segoe UI, Roboto, Arial; fill: #2a3442; }
      .h { font: 760 14px ui-sans-serif, system-ui, -apple-system, Segoe UI, Roboto, Arial; letter-spacing: .12em; fill: #607082; }
      .label { font: 650 15px ui-sans-serif, system-ui, -apple-system, Segoe UI, Roboto, Arial; fill: #667687; }
      .text { font: 620 17px ui-sans-serif, system-ui, -apple-system, Segoe UI, Roboto, Arial; fill: #2e3947; }
      .strong { font: 760 20px ui-sans-serif, system-ui, -apple-system, Segoe UI, Roboto, Arial; fill: #2a3442; }
      .small { font: 550 14px ui-sans-serif, system-ui, -apple-system, Segoe UI, Roboto, Arial; fill: #728294; }
      .btnTextLight { font: 700 16px ui-sans-serif, system-ui, -apple-system, Segoe UI, Roboto, Arial; fill: #ffffff; }
      .btnTextDark { font: 700 16px ui-sans-serif, system-ui, -apple-system, Segoe UI, Roboto, Arial; fill: #2e3947; }
      .callText { font: 620 16px ui-sans-serif, system-ui, -apple-system, Segoe UI, Roboto, Arial; fill: #5a430b; }
      .num { font: 800 18px ui-sans-serif, system-ui, -apple-system, Segoe UI, Roboto, Arial; fill: #5a430b; }
      .overlay { fill: rgba(34, 39, 46, 0.22); }
    </style>
  </defs>

  <rect class="bg" width="1700" height="1120" />
  <text class="title" x="48" y="60">History cleanup mockup: same pane, but bulk archive is first-class</text>
  <text class="small" x="48" y="88">Proposal keeps the current revision-card pattern, then adds a same-pane archive mode for selecting multiple rows at once.</text>

  <rect class="shell" x="40" y="120" width="1620" height="960" rx="28" />

  <text class="section" x="76" y="166">1. Main History pane enters archive mode without leaving the current UX</text>
  <rect class="panel" x="68" y="196" width="640" height="828" rx="24" />
  <text class="strong" x="98" y="246">&lt; Back</text>
  <text class="h" x="192" y="242">PROJECT REVISIONS</text>

  <rect class="panelSoft" x="98" y="276" width="580" height="96" rx="18" />
  <text class="label" x="124" y="306">Show</text>
  <rect class="tabOn" x="124" y="320" width="118" height="34" rx="17" />
  <rect class="tabOff" x="252" y="320" width="122" height="34" rx="17" />
  <rect class="tabOff" x="384" y="320" width="122" height="34" rx="17" />
  <rect class="tabOff" x="516" y="320" width="128" height="34" rx="17" />
  <text class="text" x="183" y="342" text-anchor="middle">Past 7 Days</text>
  <text class="text" x="313" y="342" text-anchor="middle">Past 14</text>
  <text class="text" x="445" y="342" text-anchor="middle">Past 30</text>
  <text class="text" x="580" y="342" text-anchor="middle">Archived</text>
  <rect class="btn" x="516" y="284" width="128" height="24" rx="12" />
  <text class="small" x="580" y="300" text-anchor="middle">Archive…</text>

  <rect class="panelSoft" x="98" y="400" width="580" height="148" rx="20" />
  <rect class="tabOn" x="114" y="420" width="26" height="26" rx="8" />
  <text class="strong" x="124" y="438">Pattern Demo</text>
  <text class="small" x="124" y="464">Renamed to Pattern Demo</text>
  <text class="small" x="560" y="438">Jun 27, 10:12 AM</text>
  <rect class="btnBlue" x="442" y="486" width="104" height="36" rx="16" />
  <text class="btnTextLight" x="494" y="509" text-anchor="middle">Restore...</text>
  <rect class="btn" x="558" y="486" width="86" height="36" rx="16" />
  <text class="btnTextDark" x="601" y="509" text-anchor="middle">Copy...</text>

  <rect class="tabOn" x="98" y="570" width="580" height="184" rx="20" />
  <rect class="tabOn" x="114" y="590" width="26" height="26" rx="8" />
  <text class="strong" x="124" y="608">Pattern Demo</text>
  <text class="small" x="124" y="634">3 entities added</text>
  <text class="small" x="548" y="608">Jun 27, 10:01 AM</text>
  <rect class="panelMuted" x="124" y="654" width="170" height="34" rx="17" />
  <text class="small" x="209" y="676" text-anchor="middle">+3 more changes</text>
  <rect class="btnBlue" x="442" y="692" width="104" height="36" rx="16" />
  <text class="btnTextLight" x="494" y="715" text-anchor="middle">Restore...</text>
  <rect class="btn" x="558" y="692" width="86" height="36" rx="16" />
  <text class="btnTextDark" x="601" y="715" text-anchor="middle">Copy...</text>

  <rect class="panelMuted" x="98" y="780" width="580" height="92" rx="16" />
  <text class="small" x="124" y="812">Archive mode stays inside the current pane and current cards.</text>
  <text class="small" x="124" y="836">The only archive entrypoint is the pane-level control, so cleanup stays bulk-first instead of duplicating row actions.</text>
  <rect class="btn" x="410" y="820" width="96" height="34" rx="16" />
  <text class="btnTextDark" x="458" y="842" text-anchor="middle">Cancel</text>
  <rect class="btnWarn" x="518" y="820" width="132" height="34" rx="16" />
  <text class="btnTextDark" x="584" y="842" text-anchor="middle">Archive Selected</text>

  <rect class="panel" x="748" y="196" width="420" height="828" rx="24" />
  <text class="section" x="778" y="236">2. Archive dialog uses the current sidebar/dialog language</text>
  <rect class="overlay" x="778" y="270" width="360" height="694" rx="22" />
  <rect class="panel" x="808" y="320" width="300" height="308" rx="24" />
  <text class="strong" x="836" y="364">Archive 2 revisions?</text>
  <text class="small" x="836" y="396">Selected rows</text>

  <rect class="panelSoft" x="836" y="420" width="244" height="96" rx="16" />
  <text class="small" x="854" y="448">• Pattern Demo · Renamed to Pattern Demo</text>
  <text class="small" x="854" y="472">• Pattern Demo · 3 entities added</text>
  <text class="small" x="854" y="500">Archived rows remain available in Archived History for restore or copy.</text>

  <rect class="btn" x="836" y="548" width="82" height="38" rx="16" />
  <text class="btnTextDark" x="877" y="572" text-anchor="middle">Cancel</text>
  <rect class="btnWarn" x="930" y="548" width="150" height="38" rx="16" />
  <text class="btnTextDark" x="1005" y="572" text-anchor="middle">Archive</text>

  <rect class="panel" x="1208" y="196" width="410" height="828" rx="24" />
  <text class="section" x="1238" y="236">3. Why this fits better</text>
  <rect class="callout" x="1238" y="292" width="350" height="126" rx="20" />
  <circle cx="1270" cy="334" r="18" fill="#fff2c7" stroke="#c89b2a" stroke-width="2"/>
  <text class="num" x="1270" y="340" text-anchor="middle">1</text>
  <text class="callText" x="1300" y="326">The current History pane already teaches users</text>
  <text class="callText" x="1300" y="350">“row card + action buttons + dialog.”</text>
  <text class="callText" x="1300" y="374">Bulk archive matters, so the right compromise is a same-pane mode, not one-by-one cleanup.</text>

  <rect class="panelSoft" x="1238" y="458" width="350" height="140" rx="20" />
  <text class="label" x="1264" y="490">Style contract kept</text>
  <text class="small" x="1264" y="520">• same pane shell</text>
  <text class="small" x="1264" y="544">• same filter tabs</text>
  <text class="small" x="1264" y="568">• same revision card structure</text>
  <text class="small" x="1264" y="592">• same action-button rhythm, with one added archive footer</text>

  <rect class="panelMuted" x="1238" y="640" width="350" height="128" rx="20" />
  <text class="label" x="1264" y="672">Deliberate omission</text>
  <text class="small" x="1264" y="702">This proposal still avoids turning the pane into a generic management table.</text>
  <text class="small" x="1264" y="726">Bulk archive is supported, but only through a lightweight mode layered onto the existing history cards.</text>

  <path class="line" d="M680 730 C740 730, 760 650, 808 554" />
</svg>
